Coordinates
version=1
nRows=26
nColumns=24
inDegrees=yes

Units are S.I. units (second, meters, Newtons, ...)
Angles are in degrees.

endheader
time	pelvis_tilt	pelvis_list	pelvis_rotation	pelvis_tx	pelvis_ty	pelvis_tz	hip_flexion_r	hip_adduction_r	hip_rotation_r	knee_angle_r	ankle_angle_r	subtalar_angle_r	mtp_angle_r	hip_flexion_l	hip_adduction_l	hip_rotation_l	knee_angle_l	ankle_angle_l	subtalar_angle_l	mtp_angle_l	lumbar_extension	lumbar_bending	lumbar_rotation
      1.62500000	     15.67948897	     -1.47749677	      1.19553717	     -0.00066089	      0.93994679	      0.30228591	    -25.52644782	      4.97547855	      2.53372690	     -5.71857259	     22.01455075	      3.90994523	     14.28299626	     13.59458102	     -2.31917100	    -11.25108322	    -34.64802292	     19.16551635	      2.16778747	     40.13562139	    -32.82605870	      3.12392416	      3.92664883
      1.63000000	     15.69546568	     -1.41620464	      1.01456358	      0.00579845	      0.93928904	      0.30220827	    -26.02598375	      4.82472109	      2.52058492	     -5.65886425	     22.22755583	      4.14156907	     14.37251251	     13.29777977	     -2.10211212	    -11.50984036	    -32.13160857	     18.39830347	      2.61048486	     39.93366657	    -32.85805686	      2.95290380	      4.09515446
      1.63500000	     15.76297474	     -1.36002877	      0.84114448	      0.01219223	      0.93868025	      0.30207628	    -26.60388991	      4.67290877	      2.54311182	     -5.54945356	     22.39642436	      4.33120934	     14.46430826	     12.91767616	     -1.88259098	    -11.72132200	    -29.58857831	     17.57923534	      3.15359674	     39.77012702	    -32.95045190	      2.79010703	      4.33687823
      1.64000000	     15.82988763	     -1.29024346	      0.70723196	      0.01861581	      0.93799124	      0.30185302	    -27.16046778	      4.51937755	      2.43771905	     -5.47336537	     22.59236264	      4.57713678	     14.56488230	     12.52572296	     -1.62999526	    -11.87184253	    -27.05627617	     16.68888270	      3.67510116	     39.57133391	    -33.04133224	      2.62345676	      4.49674038
      1.64500000	     15.81527576	     -1.24882972	      0.55172645	      0.02520119	      0.93711272	      0.30172902	    -27.62807609	      4.38901721	      2.39677421	     -5.41383742	     22.82332086	      4.85355370	     14.69474713	     12.22648089	     -1.43204992	    -12.07044840	    -24.61571426	     15.78338950	      4.34574523	     39.45446805	    -33.03837418	      2.47632633	      4.67530596
      1.65000000	     15.78944237	     -1.24812651	      0.43568448	      0.03171458	      0.93620161	      0.30141599	    -28.06645668	      4.29705543	      2.31706225	     -5.38459320	     23.00155930	      5.13835899	     14.85029434	     11.93280602	     -1.24572749	    -12.14757497	    -22.18288015	     14.85216004	      4.96470358	     39.38994758	    -33.01727669	      2.39317041	      4.82060114
      1.65500000	     15.72226512	     -1.26523020	      0.27288192	      0.03837969	      0.93522908	      0.30127205	    -28.47275596	      4.20556883	      2.30305763	     -5.34313898	     23.18661441	      5.38993899	     15.02897123	     11.68339274	     -1.10546943	    -12.29861051	    -19.86237260	     14.04858415	      5.65225699	     39.34450740	    -32.94220826	      2.29718636	      5.02164506
      1.66000000	     15.67296229	     -1.29054870	      0.13534212	      0.04490939	      0.93427515	      0.30109699	    -28.89204072	      4.13749900	      2.28573029	     -5.29486659	     23.32258648	      5.58766868	     15.21504523	     11.42093018	     -0.96827590	    -12.36078818	    -17.60685073	     13.28625631	      6.28236374	     39.36503067	    -32.90280579	      2.22308763	      5.23738090
      1.66500000	     15.67373239	     -1.31982014	      0.06953626	      0.05145649	      0.93335325	      0.30081060	    -29.37240471	      4.10230708	      2.21275307	     -5.24718246	     23.39835754	      5.79792281	     15.47786649	     11.10189997	     -0.81583985	    -12.32404668	    -15.43004381	     12.65960416	      6.75143003	     39.34668138	    -32.90994641	      2.18764562	      5.31679477
      1.67000000	     15.60581932	     -1.36341267	     -0.02251649	      0.05802446	      0.93233299	      0.30052465	    -29.72534792	      4.05859007	      2.10934871	     -5.30145252	     23.54936627	      6.15371939	     15.78500562	     10.84961263	     -0.68105068	    -12.20829886	    -13.34908941	     12.10071314	      7.00618194	     39.35663331	    -32.84499510	      2.16129301	      5.50033395
      1.67500000	     15.47852894	     -1.42344231	     -0.16847483	      0.06460689	      0.93119101	      0.30030450	    -30.00737643	      4.01027824	      2.08475379	     -5.35671710	     23.72423877	      6.39195464	     16.05383522	     10.67675563	     -0.58256837	    -12.21560496	    -11.43285471	     11.67425689	      7.27136958	     39.35611546	    -32.71492486	      2.12430920	      5.74109210
      1.68000000	     15.43876979	     -1.53273595	     -0.26833043	      0.07121155	      0.93012303	      0.30007817	    -30.36365078	      4.02496985	      1.96523071	     -5.48261652	     23.85659842	      6.75057187	     16.36416678	     10.44668408	     -0.55385542	    -12.34941397	     -9.70993109	     11.40292562	      7.70530858	     39.42035077	    -32.67837988	      2.15559663	      5.99741439
      1.68500000	     15.28140485	     -1.70446300	     -0.35488141	      0.07770885	      0.92898160	      0.29981411	    -30.53177931	      4.10545898	      1.97210439	     -5.69956758	     23.97129976	      6.97341964	     16.63561514	     10.41924641	     -0.61166924	    -12.44082659	     -8.28570103	     11.23204261	      8.09099857	     39.41481582	    -32.53910083	      2.24875970	      6.17873558
      1.69000000	     15.26255973	     -1.80900896	     -0.31917120	      0.08439721	      0.92796658	      0.29946405	    -30.95471832	      4.18980499	      1.89522946	     -5.73180822	     23.83095345	      7.01876168	     18.06577942	     10.32143701	     -0.60214095	    -12.58540176	     -7.19109449	     11.24727665	      8.74125261	     39.31531862	    -32.50396078	      2.31796032	      6.22111542
      1.69500000	     15.11167866	     -1.93398369	     -0.42938168	      0.09114854	      0.92681873	      0.29920459	    -31.14022458	      4.20620127	      1.90333086	     -5.95002054	     23.95101805	      7.29899943	     18.31450095	     10.36151374	     -0.63422123	    -12.86737060	     -6.26829698	     11.25753925	      9.20451655	     39.34061004	    -32.34814313	      2.35244252	      6.40259204
      1.70000000	     14.95453770	     -2.06136016	     -0.32759650	      0.09800109	      0.92557549	      0.29874080	    -31.35400288	      4.33513122	      1.62228931	     -6.12227080	     23.99748825	      7.67175865	     18.61141771	     10.58304493	     -0.68840870	    -13.14709076	     -5.84289071	     11.53040446	     10.13258784	     39.38859101	    -32.16589709	      2.49080243	      6.33702646
      1.70500000	     14.81245771	     -2.17550531	     -0.35594707	      0.10476634	      0.92438918	      0.29834902	    -31.49243827	      4.37671904	      1.49415196	     -6.45725290	     24.12273871	      8.03434552	     19.03604829	     10.77881171	     -0.75042264	    -13.55706636	     -5.58584917	     11.81158826	     10.99546540	     39.37080808	    -31.99246580	      2.55400184	      6.49161857
      1.71000000	     14.69880151	     -2.33212325	     -0.43121621	      0.11167966	      0.92330377	      0.29824175	    -31.70767717	      4.45958334	      1.65535781	     -6.69898387	     23.88751006	      7.90507508	     20.81369268	     10.95593315	     -0.90700515	    -13.95377026	     -5.57091802	     12.20076179	     11.86954789	     38.88163713	    -31.85184102	      2.60440567	      6.66633643
      1.71500000	     14.52566738	     -2.46900994	     -0.39601919	      0.11871675	      0.92208352	      0.29788087	    -31.81391332	      4.55760806	      1.49613971	     -7.07509145	     23.97115439	      8.29131932	     21.05965702	     11.26180409	     -1.02105154	    -13.97202856	     -5.83559588	     12.54964805	     12.22590640	     38.87817441	    -31.62975860	      2.71711355	      6.60180200
      1.72000000	     14.46299852	     -2.52398961	     -0.45729394	      0.12594279	      0.92107986	      0.29769955	    -32.08814120	      4.52095715	      1.38799450	     -7.34769885	     23.79638167	      8.57086248	     22.88010062	     11.41018207	     -1.06848549	    -13.98101309	     -6.24583732	     12.98799133	     12.41579054	     38.13897838	    -31.51111275	      2.68744304	      6.65246654
      1.72500000	     14.39482254	     -2.62015440	     -0.51445767	      0.13296962	      0.92009523	      0.29752395	    -32.26689549	      4.52567000	      1.42800329	     -7.78235846	     23.83086824	      8.81327807	     23.04962398	     11.63108159	     -1.18081091	    -13.80064908	     -6.90178803	     13.34443996	     12.32446251	     38.14104403	    -31.40802477	      2.69659249	      6.75983894
      1.73000000	     14.36748638	     -2.58633407	     -0.65528735	      0.14025435	      0.91921516	      0.29734737	    -32.50001171	      4.33938100	      1.38820757	     -8.22798106	     23.85256456	      9.30408605	     23.40286176	     11.73695617	     -1.16017521	    -13.66540569	     -7.60067182	     13.57499823	     12.19337364	     38.04954704	    -31.32603085	      2.53945571	      6.85734810
      1.73500000	     14.32475491	     -2.49791522	     -0.75027936	      0.14767340	      0.91836243	      0.29706743	    -32.67907298	      4.11924912	      1.21015752	     -8.75606672	     23.89260628	      9.83110947	     23.86883387	     11.91552032	     -1.09058041	    -13.55522705	     -8.55443548	     13.86857392	     12.13959662	     37.84685776	    -31.21793589	      2.35390252	      6.83912195
      1.74000000	     14.33401468	     -2.37619607	     -0.86309102	      0.15494684	      0.91757547	      0.29680378	    -32.89522523	      3.85200715	      1.14901960	     -9.26841545	     23.64624504	     10.08363766	     26.53518910	     12.03787806	     -0.99132080	    -13.36399608	     -9.62503363	     14.19959908	     11.95106841	     36.21454607	    -31.17149813	      2.13009284	      6.81909032
      1.74500000	     14.32866473	     -2.27653498	     -0.99167453	      0.16215937	      0.91682949	      0.29658082	    -33.04623829	      3.59248339	      1.10214806	     -9.89985393	     23.68050463	     10.50887895	     26.72630709	     12.19160982	     -0.93654607	    -13.11550531	    -10.81752910	     14.36237262	     11.75783398	     36.18461095	    -31.11322041	      1.90778672	      6.83589527
      1.75000000	     14.36520948	     -2.17262515	     -1.02207055	      0.16954912	      0.91602598	      0.29622160	    -33.25107464	      3.37745445	      0.97380755	    -10.51523572	     23.54861108	     10.85579008	     28.02656669	     12.25220393	     -0.79935806	    -12.68529466	    -11.96268953	     14.45209822	     11.30628901	     35.72306363	    -31.08654766	      1.73321234	      6.70517037
